<svg xmlns="http://www.w3.org/2000/svg" width="98" height="17" fill="none"  xmlns:v="https://vecta.io/nano"><mask id="A" maskUnits="userSpaceOnUse" x="-.434" y="-.411" width="98" height="18" fill="#000"><path fill="#fff" d="M-.434-.411h98v18h-98z"/><path d="M.566 9.094c0-1.404.318-2.663.955-3.778a6.92 6.92 0 0 1 2.596-2.642c1.108-.633 2.333-.95 3.676-.95 1.578 0 2.956.378 4.133 1.135s2.035 1.83 2.575 3.22h-2.264c-.402-.867-.983-1.535-1.745-2.002-.748-.468-1.648-.702-2.7-.702-1.011 0-1.918.234-2.721.702S3.64 5.213 3.183 6.08c-.457.853-.685 1.858-.685 3.014 0 1.142.228 2.147.685 3.014a4.94 4.94 0 0 0 1.89 1.982c.803.468 1.71.702 2.721.702 1.052 0 1.952-.227 2.7-.681.761-.468 1.343-1.135 1.745-2.002h2.264c-.54 1.376-1.398 2.443-2.575 3.2-1.177.743-2.554 1.115-4.133 1.115-1.343 0-2.568-.31-3.676-.929a6.96 6.96 0 0 1-2.596-2.622C.885 11.757.566 10.498.566 9.094zm21.712 7.391c-1.066 0-2.035-.241-2.908-.723-.858-.482-1.537-1.163-2.035-2.044-.485-.895-.727-1.927-.727-3.097 0-1.156.249-2.174.748-3.055.512-.895 1.205-1.576 2.077-2.044.872-.482 1.848-.723 2.928-.723s2.056.241 2.928.723c.872.468 1.558 1.142 2.056 2.023.512.881.768 1.906.768 3.076s-.263 2.202-.789 3.097a5.33 5.33 0 0 1-2.098 2.044c-.886.482-1.869.723-2.949.723zm0-1.652a4.01 4.01 0 0 0 1.911-.475c.595-.317 1.073-.791 1.433-1.424.374-.633.561-1.404.561-2.312s-.18-1.679-.54-2.312-.831-1.101-1.412-1.404a3.89 3.89 0 0 0-1.89-.475 3.93 3.93 0 0 0-1.911.475c-.568.303-1.025.771-1.371 1.404s-.519 1.404-.519 2.312c0 .922.166 1.7.498 2.333.346.633.803 1.108 1.371 1.424.568.303 1.191.454 1.869.454zm9.297-11.684c-.36 0-.665-.124-.914-.372a1.23 1.23 0 0 1-.374-.908 1.23 1.23 0 0 1 .374-.908c.249-.248.554-.372.914-.372.346 0 .637.124.872.372a1.23 1.23 0 0 1 .374.908 1.23 1.23 0 0 1-.374.908c-.235.248-.526.372-.872.372zm.914 1.837v11.313h-1.89V4.986h1.89zm8.766-.206c1.385 0 2.506.42 3.364 1.259.858.826 1.288 2.023 1.288 3.592v6.668h-1.869v-6.4c0-1.129-.284-1.989-.851-2.58-.568-.606-1.343-.908-2.326-.908-.997 0-1.793.31-2.388.929-.581.619-.872 1.521-.872 2.704v6.255h-1.89V4.986h1.89v1.61a3.76 3.76 0 0 1 1.516-1.342 4.82 4.82 0 0 1 2.139-.475zm14.987 4.108c.526.083 1.004.296 1.433.64.443.344.789.771 1.038 1.28a3.5 3.5 0 0 1 .395 1.631c0 .729-.187 1.39-.561 1.982-.374.578-.921 1.039-1.641 1.383-.706.33-1.544.495-2.513.495h-5.4V1.91h5.192c.983 0 1.821.165 2.513.495.692.317 1.211.75 1.558 1.301s.519 1.17.519 1.858c0 .853-.235 1.562-.706 2.126-.457.55-1.066.95-1.828 1.197zm-5.358-.764h3.177c.886 0 1.572-.206 2.056-.619s.727-.984.727-1.713-.242-1.301-.727-1.713-1.184-.619-2.098-.619h-3.136v4.665zm3.344 6.627c.941 0 1.675-.22 2.201-.661s.789-1.053.789-1.837c0-.798-.277-1.424-.831-1.879-.554-.468-1.295-.702-2.222-.702h-3.281v5.078h3.344zm6.796-4.15c0-1.156.235-2.168.706-3.035.471-.881 1.115-1.562 1.931-2.044.831-.482 1.751-.723 2.762-.723.997 0 1.862.213 2.596.64s1.281.963 1.641 1.61V4.986h1.911v11.313H70.66v-2.106c-.374.661-.934 1.211-1.682 1.652-.734.427-1.592.64-2.575.64-1.011 0-1.924-.248-2.741-.743s-1.461-1.19-1.931-2.085-.706-1.913-.706-3.055zm9.636.021c0-.853-.173-1.596-.519-2.23s-.817-1.115-1.412-1.445a3.72 3.72 0 0 0-1.931-.516c-.706 0-1.35.165-1.931.495s-1.045.812-1.392 1.445-.519 1.376-.519 2.229c0 .867.173 1.624.519 2.271a3.75 3.75 0 0 0 1.392 1.466c.581.33 1.225.495 1.931.495s1.35-.165 1.931-.495c.595-.344 1.066-.833 1.412-1.466.346-.647.519-1.397.519-2.25zm9.134 5.863c-.872 0-1.654-.145-2.347-.434-.692-.303-1.239-.716-1.641-1.239-.401-.537-.623-1.149-.665-1.837h1.952a1.91 1.91 0 0 0 .789 1.383c.485.358 1.115.537 1.89.537.72 0 1.288-.158 1.703-.475s.623-.716.623-1.197c0-.496-.222-.86-.665-1.094-.443-.248-1.128-.489-2.056-.723-.845-.22-1.537-.44-2.077-.661a3.94 3.94 0 0 1-1.371-1.011c-.374-.454-.561-1.046-.561-1.775 0-.578.173-1.108.519-1.59s.838-.86 1.474-1.135c.637-.289 1.364-.434 2.181-.434 1.26 0 2.278.317 3.053.95s1.191 1.5 1.246 2.601h-1.89c-.041-.592-.284-1.067-.727-1.424-.429-.358-1.011-.537-1.745-.537-.678 0-1.218.145-1.62.434s-.602.667-.602 1.135c0 .372.118.681.353.929.249.234.554.427.914.578.374.138.886.296 1.537.475.817.22 1.482.44 1.994.661a3.31 3.31 0 0 1 1.308.95c.374.427.568.984.581 1.672a2.85 2.85 0 0 1-.519 1.672c-.346.495-.838.888-1.474 1.177-.623.275-1.343.413-2.16.413zm17.205-6.276a11 11 0 0 1-.062 1.135h-9.096c.069 1.115.45 1.989 1.142 2.622.706.619 1.558.929 2.554.929.817 0 1.495-.186 2.035-.557a3.04 3.04 0 0 0 1.163-1.528h2.035a4.91 4.91 0 0 1-1.828 2.663c-.914.674-2.049 1.012-3.406 1.012-1.08 0-2.049-.241-2.907-.723-.845-.482-1.509-1.163-1.994-2.044-.485-.895-.727-1.927-.727-3.097s.235-2.195.706-3.076a4.89 4.89 0 0 1 1.973-2.023c.858-.482 1.841-.723 2.949-.723 1.08 0 2.035.234 2.866.702s1.468 1.115 1.911 1.941c.457.812.685 1.734.685 2.766zm-1.952-.392c0-.716-.159-1.328-.478-1.837a3 3 0 0 0-1.308-1.177 3.92 3.92 0 0 0-1.807-.413c-.955 0-1.772.303-2.451.908-.665.606-1.045 1.445-1.142 2.519h7.186z"/></mask><path d="M.566 9.094c0-1.404.318-2.663.955-3.778a6.92 6.92 0 0 1 2.596-2.642c1.108-.633 2.333-.95 3.676-.95 1.578 0 2.956.378 4.133 1.135s2.035 1.83 2.575 3.22h-2.264c-.402-.867-.983-1.535-1.745-2.002-.748-.468-1.648-.702-2.7-.702-1.011 0-1.918.234-2.721.702S3.64 5.213 3.183 6.08c-.457.853-.685 1.858-.685 3.014 0 1.142.228 2.147.685 3.014a4.94 4.94 0 0 0 1.89 1.982c.803.468 1.71.702 2.721.702 1.052 0 1.952-.227 2.7-.681.761-.468 1.343-1.135 1.745-2.002h2.264c-.54 1.376-1.398 2.443-2.575 3.2-1.177.743-2.554 1.115-4.133 1.115-1.343 0-2.568-.31-3.676-.929a6.96 6.96 0 0 1-2.596-2.622C.885 11.757.566 10.498.566 9.094zm21.712 7.391c-1.066 0-2.035-.241-2.908-.723-.858-.482-1.537-1.163-2.035-2.044-.485-.895-.727-1.927-.727-3.097 0-1.156.249-2.174.748-3.055.512-.895 1.205-1.576 2.077-2.044.872-.482 1.848-.723 2.928-.723s2.056.241 2.928.723c.872.468 1.558 1.142 2.056 2.023.512.881.768 1.906.768 3.076s-.263 2.202-.789 3.097a5.33 5.33 0 0 1-2.098 2.044c-.886.482-1.869.723-2.949.723zm0-1.652a4.01 4.01 0 0 0 1.911-.475c.595-.317 1.073-.791 1.433-1.424.374-.633.561-1.404.561-2.312s-.18-1.679-.54-2.312-.831-1.101-1.412-1.404a3.89 3.89 0 0 0-1.89-.475 3.93 3.93 0 0 0-1.911.475c-.568.303-1.025.771-1.371 1.404s-.519 1.404-.519 2.312c0 .922.166 1.7.498 2.333.346.633.803 1.108 1.371 1.424.568.303 1.191.454 1.869.454zm9.297-11.684c-.36 0-.665-.124-.914-.372a1.23 1.23 0 0 1-.374-.908 1.23 1.23 0 0 1 .374-.908c.249-.248.554-.372.914-.372.346 0 .637.124.872.372a1.23 1.23 0 0 1 .374.908 1.23 1.23 0 0 1-.374.908c-.235.248-.526.372-.872.372zm.914 1.837v11.313h-1.89V4.986h1.89zm8.766-.206c1.385 0 2.506.42 3.364 1.259.858.826 1.288 2.023 1.288 3.592v6.668h-1.869v-6.4c0-1.129-.284-1.989-.851-2.58-.568-.606-1.343-.908-2.326-.908-.997 0-1.793.31-2.388.929-.581.619-.872 1.521-.872 2.704v6.255h-1.89V4.986h1.89v1.61a3.76 3.76 0 0 1 1.516-1.342 4.82 4.82 0 0 1 2.139-.475zm14.987 4.108c.526.083 1.004.296 1.433.64.443.344.789.771 1.038 1.28a3.5 3.5 0 0 1 .395 1.631c0 .729-.187 1.39-.561 1.982-.374.578-.921 1.039-1.641 1.383-.706.33-1.544.495-2.513.495h-5.4V1.91h5.192c.983 0 1.821.165 2.513.495.692.317 1.211.75 1.558 1.301s.519 1.17.519 1.858c0 .853-.235 1.562-.706 2.126-.457.55-1.066.95-1.828 1.197zm-5.358-.764h3.177c.886 0 1.572-.206 2.056-.619s.727-.984.727-1.713-.242-1.301-.727-1.713-1.184-.619-2.098-.619h-3.136v4.665zm3.344 6.627c.941 0 1.675-.22 2.201-.661s.789-1.053.789-1.837c0-.798-.277-1.424-.831-1.879-.554-.468-1.295-.702-2.222-.702h-3.281v5.078h3.344zm6.796-4.15c0-1.156.235-2.168.706-3.035.471-.881 1.115-1.562 1.931-2.044.831-.482 1.751-.723 2.762-.723.997 0 1.862.213 2.596.64s1.281.963 1.641 1.61V4.986h1.911v11.313H70.66v-2.106c-.374.661-.934 1.211-1.682 1.652-.734.427-1.592.64-2.575.64-1.011 0-1.924-.248-2.741-.743s-1.461-1.19-1.931-2.085-.706-1.913-.706-3.055zm9.636.021c0-.853-.173-1.596-.519-2.23s-.817-1.115-1.412-1.445a3.72 3.72 0 0 0-1.931-.516c-.706 0-1.35.165-1.931.495s-1.045.812-1.392 1.445-.519 1.376-.519 2.229c0 .867.173 1.624.519 2.271a3.75 3.75 0 0 0 1.392 1.466c.581.33 1.225.495 1.931.495s1.35-.165 1.931-.495c.595-.344 1.066-.833 1.412-1.466.346-.647.519-1.397.519-2.25zm9.134 5.863c-.872 0-1.654-.145-2.347-.434-.692-.303-1.239-.716-1.641-1.239-.401-.537-.623-1.149-.665-1.837h1.952a1.91 1.91 0 0 0 .789 1.383c.485.358 1.115.537 1.89.537.72 0 1.288-.158 1.703-.475s.623-.716.623-1.197c0-.496-.222-.86-.665-1.094-.443-.248-1.128-.489-2.056-.723-.845-.22-1.537-.44-2.077-.661a3.94 3.94 0 0 1-1.371-1.011c-.374-.454-.561-1.046-.561-1.775 0-.578.173-1.108.519-1.59s.838-.86 1.474-1.135c.637-.289 1.364-.434 2.181-.434 1.26 0 2.278.317 3.053.95s1.191 1.5 1.246 2.601h-1.89c-.041-.592-.284-1.067-.727-1.424-.429-.358-1.011-.537-1.745-.537-.678 0-1.218.145-1.62.434s-.602.667-.602 1.135c0 .372.118.681.353.929.249.234.554.427.914.578.374.138.886.296 1.537.475.817.22 1.482.44 1.994.661a3.31 3.31 0 0 1 1.308.95c.374.427.568.984.581 1.672a2.85 2.85 0 0 1-.519 1.672c-.346.495-.838.888-1.474 1.177-.623.275-1.343.413-2.16.413zm17.205-6.276a11 11 0 0 1-.062 1.135h-9.096c.069 1.115.45 1.989 1.142 2.622.706.619 1.558.929 2.554.929.817 0 1.495-.186 2.035-.557a3.04 3.04 0 0 0 1.163-1.528h2.035a4.91 4.91 0 0 1-1.828 2.663c-.914.674-2.049 1.012-3.406 1.012-1.08 0-2.049-.241-2.907-.723-.845-.482-1.509-1.163-1.994-2.044-.485-.895-.727-1.927-.727-3.097s.235-2.195.706-3.076a4.89 4.89 0 0 1 1.973-2.023c.858-.482 1.841-.723 2.949-.723 1.08 0 2.035.234 2.866.702s1.468 1.115 1.911 1.941c.457.812.685 1.734.685 2.766zm-1.952-.392c0-.716-.159-1.328-.478-1.837a3 3 0 0 0-1.308-1.177 3.92 3.92 0 0 0-1.807-.413c-.955 0-1.772.303-2.451.908-.665.606-1.045 1.445-1.142 2.519h7.186z" fill="#5c5c5c"/><path d="M.566 9.094c0-1.404.318-2.663.955-3.778a6.92 6.92 0 0 1 2.596-2.642c1.108-.633 2.333-.95 3.676-.95 1.578 0 2.956.378 4.133 1.135s2.035 1.83 2.575 3.22h-2.264c-.402-.867-.983-1.535-1.745-2.002-.748-.468-1.648-.702-2.7-.702-1.011 0-1.918.234-2.721.702S3.64 5.213 3.183 6.08c-.457.853-.685 1.858-.685 3.014 0 1.142.228 2.147.685 3.014a4.94 4.94 0 0 0 1.89 1.982c.803.468 1.71.702 2.721.702 1.052 0 1.952-.227 2.7-.681.761-.468 1.343-1.135 1.745-2.002h2.264c-.54 1.376-1.398 2.443-2.575 3.2-1.177.743-2.554 1.115-4.133 1.115-1.343 0-2.568-.31-3.676-.929a6.96 6.96 0 0 1-2.596-2.622C.885 11.757.566 10.498.566 9.094zm21.712 7.391c-1.066 0-2.035-.241-2.908-.723-.858-.482-1.537-1.163-2.035-2.044-.485-.895-.727-1.927-.727-3.097 0-1.156.249-2.174.748-3.055.512-.895 1.205-1.576 2.077-2.044.872-.482 1.848-.723 2.928-.723s2.056.241 2.928.723c.872.468 1.558 1.142 2.056 2.023.512.881.768 1.906.768 3.076s-.263 2.202-.789 3.097a5.33 5.33 0 0 1-2.098 2.044c-.886.482-1.869.723-2.949.723zm0-1.652a4.01 4.01 0 0 0 1.911-.475c.595-.317 1.073-.791 1.433-1.424.374-.633.561-1.404.561-2.312s-.18-1.679-.54-2.312-.831-1.101-1.412-1.404a3.89 3.89 0 0 0-1.89-.475 3.93 3.93 0 0 0-1.911.475c-.568.303-1.025.771-1.371 1.404s-.519 1.404-.519 2.312c0 .922.166 1.7.498 2.333.346.633.803 1.108 1.371 1.424.568.303 1.191.454 1.869.454zm9.297-11.684c-.36 0-.665-.124-.914-.372a1.23 1.23 0 0 1-.374-.908 1.23 1.23 0 0 1 .374-.908c.249-.248.554-.372.914-.372.346 0 .637.124.872.372a1.23 1.23 0 0 1 .374.908 1.23 1.23 0 0 1-.374.908c-.235.248-.526.372-.872.372zm.914 1.837v11.313h-1.89V4.986h1.89zm8.766-.206c1.385 0 2.506.42 3.364 1.259.858.826 1.288 2.023 1.288 3.592v6.668h-1.869v-6.4c0-1.129-.284-1.989-.851-2.58-.568-.606-1.343-.908-2.326-.908-.997 0-1.793.31-2.388.929-.581.619-.872 1.521-.872 2.704v6.255h-1.89V4.986h1.89v1.61a3.76 3.76 0 0 1 1.516-1.342 4.82 4.82 0 0 1 2.139-.475zm14.987 4.108c.526.083 1.004.296 1.433.64.443.344.789.771 1.038 1.28a3.5 3.5 0 0 1 .395 1.631c0 .729-.187 1.39-.561 1.982-.374.578-.921 1.039-1.641 1.383-.706.33-1.544.495-2.513.495h-5.4V1.91h5.192c.983 0 1.821.165 2.513.495.692.317 1.211.75 1.558 1.301s.519 1.17.519 1.858c0 .853-.235 1.562-.706 2.126-.457.55-1.066.95-1.828 1.197zm-5.358-.764h3.177c.886 0 1.572-.206 2.056-.619s.727-.984.727-1.713-.242-1.301-.727-1.713-1.184-.619-2.098-.619h-3.136v4.665zm3.344 6.627c.941 0 1.675-.22 2.201-.661s.789-1.053.789-1.837c0-.798-.277-1.424-.831-1.879-.554-.468-1.295-.702-2.222-.702h-3.281v5.078h3.344zm6.796-4.15c0-1.156.235-2.168.706-3.035.471-.881 1.115-1.562 1.931-2.044.831-.482 1.751-.723 2.762-.723.997 0 1.862.213 2.596.64s1.281.963 1.641 1.61V4.986h1.911v11.313H70.66v-2.106c-.374.661-.934 1.211-1.682 1.652-.734.427-1.592.64-2.575.64-1.011 0-1.924-.248-2.741-.743s-1.461-1.19-1.931-2.085-.706-1.913-.706-3.055zm9.636.021c0-.853-.173-1.596-.519-2.23s-.817-1.115-1.412-1.445a3.72 3.72 0 0 0-1.931-.516c-.706 0-1.35.165-1.931.495s-1.045.812-1.392 1.445-.519 1.376-.519 2.229c0 .867.173 1.624.519 2.271a3.75 3.75 0 0 0 1.392 1.466c.581.33 1.225.495 1.931.495s1.35-.165 1.931-.495c.595-.344 1.066-.833 1.412-1.466.346-.647.519-1.397.519-2.25zm9.134 5.863c-.872 0-1.654-.145-2.347-.434-.692-.303-1.239-.716-1.641-1.239-.401-.537-.623-1.149-.665-1.837h1.952a1.91 1.91 0 0 0 .789 1.383c.485.358 1.115.537 1.89.537.72 0 1.288-.158 1.703-.475s.623-.716.623-1.197c0-.496-.222-.86-.665-1.094-.443-.248-1.128-.489-2.056-.723-.845-.22-1.537-.44-2.077-.661a3.94 3.94 0 0 1-1.371-1.011c-.374-.454-.561-1.046-.561-1.775 0-.578.173-1.108.519-1.59s.838-.86 1.474-1.135c.637-.289 1.364-.434 2.181-.434 1.26 0 2.278.317 3.053.95s1.191 1.5 1.246 2.601h-1.89c-.041-.592-.284-1.067-.727-1.424-.429-.358-1.011-.537-1.745-.537-.678 0-1.218.145-1.62.434s-.602.667-.602 1.135c0 .372.118.681.353.929.249.234.554.427.914.578.374.138.886.296 1.537.475.817.22 1.482.44 1.994.661a3.31 3.31 0 0 1 1.308.95c.374.427.568.984.581 1.672a2.85 2.85 0 0 1-.519 1.672c-.346.495-.838.888-1.474 1.177-.623.275-1.343.413-2.16.413zm17.205-6.276a11 11 0 0 1-.062 1.135h-9.096c.069 1.115.45 1.989 1.142 2.622.706.619 1.558.929 2.554.929.817 0 1.495-.186 2.035-.557a3.04 3.04 0 0 0 1.163-1.528h2.035a4.91 4.91 0 0 1-1.828 2.663c-.914.674-2.049 1.012-3.406 1.012-1.08 0-2.049-.241-2.907-.723-.845-.482-1.509-1.163-1.994-2.044-.485-.895-.727-1.927-.727-3.097s.235-2.195.706-3.076a4.89 4.89 0 0 1 1.973-2.023c.858-.482 1.841-.723 2.949-.723 1.08 0 2.035.234 2.866.702s1.468 1.115 1.911 1.941c.457.812.685 1.734.685 2.766zm-1.952-.392c0-.716-.159-1.328-.478-1.837a3 3 0 0 0-1.308-1.177 3.92 3.92 0 0 0-1.807-.413c-.955 0-1.772.303-2.451.908-.665.606-1.045 1.445-1.142 2.519h7.186z" stroke="#5c5c5c" mask="url(#A)"/></svg>