<svg xmlns="http://www.w3.org/2000/svg" xmlns:xlink="http://www.w3.org/1999/xlink" width="36" height="33" fill="none"  xmlns:v="https://vecta.io/nano"><path d="M.184 11.082l15.388 20.013-6.98-20.012H.184z" fill="url(#A)"/><path d="M9.963 11.082L17.4 32.404l7.583-21.322H9.963z" fill="url(#B)"/><path d="M19.057 31.612l15.785-20.529h-8.485l-7.3 20.529z" fill="url(#C)"/><path d="M28.82.288h-9.954l6.825 8.8 3.129-8.8z" fill="url(#D)"/><path d="M24.531 9.733L17.512.684l-7.018 9.049h14.036z" fill="url(#E)"/><path d="M16.16.288H6.198l3.09 8.86L16.16.288z" fill="url(#F)"/><path d="M5.125 1.142L0 9.733h8.121L5.125 1.142z" fill="url(#G)"/><path d="M35.025 9.733l-5.13-8.599-3.059 8.599h8.189z" fill="url(#H)"/><defs><linearGradient id="A" x1="8.647" y1="7.932" x2="10.114" y2="43.359" xlink:href="#I"><stop stop-color="#fd749b"/><stop offset="1" stop-color="#281ac8"/></linearGradient><linearGradient id="B" x1="18.224" y1="7.726" x2="19.93" y2="45.459" xlink:href="#I"><stop stop-color="#fd749b"/><stop offset="1" stop-color="#281ac8"/></linearGradient><linearGradient id="C" x1="27.738" y1="7.851" x2="29.244" y2="44.192" xlink:href="#I"><stop stop-color="#fd749b"/><stop offset="1" stop-color="#281ac8"/></linearGradient><linearGradient id="D" x1="24.341" y1="-1.097" x2="24.78" y2="14.496" xlink:href="#I"><stop stop-color="#fd749b"/><stop offset="1" stop-color="#281ac8"/></linearGradient><linearGradient id="E" x1="18.215" y1="-.74" x2="18.544" y2="15.299" xlink:href="#I"><stop stop-color="#fd749b"/><stop offset="1" stop-color="#281ac8"/></linearGradient><linearGradient id="F" x1="11.677" y1="-1.106" x2="12.122" y2="14.592" xlink:href="#I"><stop stop-color="#fd749b"/><stop offset="1" stop-color="#281ac8"/></linearGradient><linearGradient id="G" x1="4.466" y1="-.21" x2="4.979" y2="15.006" xlink:href="#I"><stop stop-color="#fd749b"/><stop offset="1" stop-color="#281ac8"/></linearGradient><linearGradient id="H" x1="31.34" y1="-.22" x2="31.849" y2="15.012" xlink:href="#I"><stop stop-color="#fd749b"/><stop offset="1" stop-color="#281ac8"/></linearGradient><linearGradient id="I" gradientUnits="userSpaceOnUse"/></defs></svg>