<svg xmlns="http://www.w3.org/2000/svg" width="16" height="18" fill="none"  xmlns:v="https://vecta.io/nano"><path d="M7.847 7.935l-2.229.745-1.083-3.243 2.193-.733c.447-.149.92-.118 1.336.085h0c.416.203.721.551.865.982s.109.893-.101 1.305h0a1.75 1.75 0 0 1-.981.859zm-5.12-1.895l.326-.109 2.834 8.483-.326.109a.78.78 0 0 0-.495.984.78.78 0 0 0 .987.489l1.921-.642.104.311a.78.78 0 1 0 1.482-.495l-.104-.311.13-.043.104.311a.78.78 0 1 0 1.482-.495l-.106-.318c1.74-.701 2.675-2.627 2.076-4.417-.432-1.292-1.544-2.161-2.811-2.361a3.22 3.22 0 0 0 .081-2.259C9.956 3.912 8.677 3.06 7.305 3.058l-.159-.477h0a.78.78 0 1 0-1.482.495l.104.312-.13.043-.104-.312a.78.78 0 1 0-1.482.495l.104.312-.283.095v-.001l-.474.158-1.163.389a.78.78 0 0 0-.495.984.78.78 0 0 0 .987.489zm8.815 5.868h0c-.244.479-.661.837-1.18 1.01l-2.994 1-1.258-3.766 2.193-.733.045-.016.755-.252a2.04 2.04 0 0 1 1.55.099h0c.483.235.838.64 1.005 1.141s.127 1.038-.117 1.517z" fill="url(#A)" stroke="url(#A)"/><defs><linearGradient id="A" x1="5.517" y1=".634" x2="14.061" y2="22.505" gradientUnits="userSpaceOnUse"><stop stop-color="#fd749b"/><stop offset="1" stop-color="#281ac8"/></linearGradient></defs></svg>