<svg xmlns="http://www.w3.org/2000/svg" width="28" height="33" fill="none"  xmlns:v="https://vecta.io/nano"><path d="M17.471 22.256h-6.662c-5.475 0-9.936 4.461-9.936 9.936h26.562c-.029-5.446-4.49-9.936-9.965-9.936z" fill="url(#A)"/><path d="M15.328 17.708c.521 0 1.014.174 1.39.492h2.404c1.188-1.246 1.912-2.897 1.912-4.751 0-3.824-3.1-6.894-6.894-6.894s-6.894 3.07-6.894 6.894c0 2.578 1.419 4.837 3.534 6.025.232-1.014 1.13-1.767 2.172-1.767h2.375z" fill="url(#B)"/><path d="M3.944 14.029c.087.724.435 1.39.927 1.883.377.377.869.666 1.419.84-.029-.116-.029-.232-.029-.319v-5.619c0-.116 0-.232.029-.348-.55.145-1.014.434-1.419.84l-.116.116v-.232c0-.55.058-1.101.145-1.622.087-.55.232-1.072.434-1.564.174-.521.406-1.014.695-1.477a8.43 8.43 0 0 1 .927-1.332.22.22 0 0 0 .058-.116c.261.029.521-.058.695-.232 1.767-1.767 4.084-2.636 6.373-2.636s4.635.869 6.373 2.636c.203.203.463.261.695.232.029.029.029.087.058.116a8.43 8.43 0 0 1 .927 1.332c.261.463.492.956.695 1.477a14.33 14.33 0 0 1 .434 1.593c.087.521.145 1.072.145 1.622v.232c-.029-.058-.087-.087-.116-.116-.377-.377-.869-.666-1.419-.84a1.41 1.41 0 0 1 .029.348v5.591c0 .116 0 .232-.029.319.145-.029.29-.087.434-.145v1.825c0 .203-.029.406-.058.55s-.087.232-.145.319a.63.63 0 0 1-.232.145c-.116.029-.232.058-.377.058h-.029-5.33c-.174-.29-.463-.492-.84-.492h-2.375c-.521 0-.927.434-.927.927.029.521.434.927.956.927h2.375a1 1 0 0 0 .84-.492h5.388.203c.203 0 .377-.058.55-.116.232-.087.406-.203.579-.377a1.91 1.91 0 0 0 .348-.637c.058-.232.116-.521.116-.84v-2.317-.087l.087-.087c.492-.492.84-1.159.927-1.883.029-.029.058-.029.058-.058.087-.087.145-.232.145-.348V11.22c0-.608-.058-1.217-.145-1.796l-.521-1.767a8.62 8.62 0 0 0-.782-1.651c-.29-.521-.637-1.014-1.043-1.477-.029-.058-.087-.087-.145-.116.058-.261-.029-.579-.232-.782-2.086-2.086-4.809-3.128-7.56-3.128S8.666 1.545 6.551 3.63c-.203.203-.29.521-.232.782-.058.029-.087.058-.145.116-.406.463-.753.956-1.043 1.477s-.55 1.072-.782 1.651c-.203.579-.377 1.159-.463 1.767-.116.579-.145 1.188-.145 1.796v2.404a.48.48 0 0 0 .145.348c.029.029.058.029.058.058z" fill="url(#C)"/><defs><linearGradient id="A" x1="15.483" y1="20.692" x2="15.693" y2="38.308" gradientUnits="userSpaceOnUse"><stop stop-color="#fd749b"/><stop offset="1" stop-color="#281ac8"/></linearGradient><linearGradient id="B" x1="14.83" y1="4.522" x2="15.513" y2="27.411" gradientUnits="userSpaceOnUse"><stop stop-color="#fd749b"/><stop offset="1" stop-color="#281ac8"/></linearGradient><linearGradient id="C" x1="15.196" y1="-2.704" x2="16.32" y2="33.372" gradientUnits="userSpaceOnUse"><stop stop-color="#fd749b"/><stop offset="1" stop-color="#281ac8"/></linearGradient></defs></svg>