<svg xmlns="http://www.w3.org/2000/svg" width="33" height="33" fill="none"  xmlns:v="https://vecta.io/nano"><g clip-path="url(#C)"><path d="M16.229 7.184c-3.096 0-5.615 2.519-5.615 5.615s2.519 5.615 5.615 5.615 5.615-2.519 5.615-5.615-2.519-5.615-5.615-5.615z" fill="url(#A)"/><path d="M27.925 16.6l-1.703-3.8 1.703-3.8-3.611-2.074-.856-4.075-4.141.445L16.23.502l-3.088 2.794-4.14-.445-.856 4.075-3.611 2.073 1.703 3.8-1.703 3.8 3.611 2.074.464 2.208-3.855 8.191 4.023.053 2.605 3.066 3.789-8.052 1.059.958 1.058-.958 3.789 8.052 2.605-3.066 4.023-.053-3.855-8.191.464-2.208 3.611-2.074zM16.23 20.271c-4.12 0-7.472-3.352-7.472-7.472s3.352-7.472 7.472-7.472 7.472 3.352 7.472 7.472-3.352 7.472-7.472 7.472z" fill="url(#B)"/></g><defs><linearGradient id="A" x1="16.79" y1="5.417" x2="17.424" y2="25.311" gradientUnits="userSpaceOnUse"><stop stop-color="#fd749b"/><stop offset="1" stop-color="#281ac8"/></linearGradient><linearGradient id="B" x1="17.399" y1="-4.486" x2="19.819" y2="51.603" gradientUnits="userSpaceOnUse"><stop stop-color="#fd749b"/><stop offset="1" stop-color="#281ac8"/></linearGradient><clipPath id="C"><path fill="#fff" transform="translate(.386 .502)" d="M0 0h31.69v31.69H0z"/></clipPath></defs></svg>