<svg xmlns="http://www.w3.org/2000/svg" width="14" height="9" fill="none"  xmlns:v="https://vecta.io/nano"><path opacity=".8" fill-rule="evenodd" d="M4.447 5.391V3.609h4.27C9.015 5.765 8.117 9 4.447 9 1.991 9 0 6.985 0 4.5S1.991 0 4.447 0a4.4 4.4 0 0 1 2.992 1.171l-.975.998-.291.315c-.457-.382-.955-.657-1.726-.657-1.459 0-2.598 1.197-2.598 2.673s1.139 2.673 2.598 2.673c1.442 0 2.027-.629 2.404-1.785l-2.404.002zm8.012-3.252v1.559H14v1.114h-1.541v1.604h-1.1V4.812H9.774V3.698h1.585V2.139h1.1z" fill="#fff"/></svg>