<svg xmlns="http://www.w3.org/2000/svg" width="12" height="13" fill="none"  xmlns:v="https://vecta.io/nano"><path opacity=".8" fill-rule="evenodd" d="M10.574 0H1.426C.639 0 0 .69 0 1.542v9.917C0 12.31.639 13 1.426 13h9.147c.788 0 1.426-.69 1.426-1.542V1.542C12 .69 11.361 0 10.574 0zM8.625 2.031c0-.224.168-.406.375-.406h1.125c.207 0 .375.182.375.406V3.25c0 .224-.168.406-.375.406H9c-.207 0-.375-.182-.375-.406V2.031zm-2.611 1.99c1.275 0 2.308 1.117 2.308 2.494S7.288 9.009 6.014 9.009 3.706 7.893 3.706 6.515 4.74 4.021 6.014 4.021zm4.861 7.354c0 .224-.168.406-.375.406h-9c-.207 0-.375-.182-.375-.406V5.281h1.5c-.195.305-.262.873-.262 1.234 0 2.175 1.638 3.945 3.65 3.945s3.651-1.77 3.651-3.945c0-.361-.047-.92-.29-1.234h1.5v6.094z" fill="#fff"/></svg>