<svg xmlns="http://www.w3.org/2000/svg" width="114" height="25" fill="none"  xmlns:v="https://vecta.io/nano"><mask id="A" maskUnits="userSpaceOnUse" x="36.011" y="8.375" width="78" height="14" fill="#000"><path fill="#fff" d="M36.011 8.375h78v14h-78z"/><path d="M37.011 16.096c0-1.109.252-2.105.755-2.986a5.47 5.47 0 0 1 2.052-2.088 5.75 5.75 0 0 1 2.905-.75c1.247 0 2.336.299 3.266.897s1.608 1.447 2.035 2.545h-1.789c-.317-.685-.777-1.213-1.379-1.582-.591-.37-1.302-.555-2.134-.555-.799 0-1.516.185-2.15.555s-1.133.897-1.494 1.582c-.361.674-.542 1.468-.542 2.382 0 .903.181 1.697.542 2.382a3.9 3.9 0 0 0 1.494 1.566c.635.37 1.351.555 2.15.555.832 0 1.543-.179 2.134-.538.602-.37 1.061-.897 1.379-1.583h1.789c-.427 1.088-1.105 1.931-2.035 2.529-.93.587-2.019.881-3.266.881-1.061 0-2.03-.245-2.905-.734a5.5 5.5 0 0 1-2.052-2.072c-.503-.881-.755-1.876-.755-2.986zm17.159 5.841a4.67 4.67 0 0 1-2.298-.571 4.16 4.16 0 0 1-1.608-1.615c-.383-.707-.574-1.523-.574-2.447 0-.914.197-1.719.591-2.415a4.1 4.1 0 0 1 1.641-1.615c.689-.381 1.461-.571 2.314-.571s1.625.19 2.314.571a4.02 4.02 0 0 1 1.625 1.599c.405.696.607 1.506.607 2.431s-.208 1.74-.624 2.447c-.405.696-.957 1.234-1.658 1.615s-1.477.571-2.331.571zm0-1.305a3.17 3.17 0 0 0 1.51-.375 2.81 2.81 0 0 0 1.133-1.126c.295-.5.443-1.109.443-1.827s-.142-1.327-.427-1.827-.657-.87-1.116-1.109c-.46-.25-.957-.375-1.494-.375a3.11 3.11 0 0 0-1.51.375c-.449.239-.81.609-1.083 1.109s-.41 1.109-.41 1.827c0 .729.131 1.343.394 1.843.273.5.635.876 1.083 1.126a3.09 3.09 0 0 0 1.477.359zm7.347-9.234c-.285 0-.525-.098-.722-.294s-.296-.435-.296-.718.099-.522.296-.718.438-.294.722-.294a.91.91 0 0 1 .689.294c.197.196.295.435.295.718s-.099.522-.295.718a.91.91 0 0 1-.689.294zm.722 1.452v8.94h-1.494v-8.94h1.494zm6.928-.164c1.094 0 1.981.332 2.659.995.678.652 1.018 1.599 1.018 2.839v5.27h-1.477v-5.058c0-.892-.224-1.572-.673-2.039-.449-.479-1.061-.718-1.838-.718-.788 0-1.417.245-1.888.734-.46.489-.689 1.202-.689 2.137v4.943h-1.494v-8.94h1.494v1.272a2.97 2.97 0 0 1 1.198-1.06c.514-.25 1.078-.375 1.691-.375zm11.845 3.247a2.37 2.37 0 0 1 1.133.506 2.85 2.85 0 0 1 .821 1.011 2.77 2.77 0 0 1 .312 1.289c0 .576-.148 1.098-.443 1.566-.295.457-.728.821-1.297 1.093-.558.261-1.22.392-1.986.392h-4.267V10.419h4.103c.777 0 1.439.131 1.986.392.547.25.957.593 1.231 1.028a2.7 2.7 0 0 1 .41 1.468c0 .674-.186 1.235-.558 1.68-.361.435-.843.75-1.444.946zm-4.234-.604h2.511c.7 0 1.242-.163 1.625-.489s.575-.778.575-1.354-.191-1.028-.575-1.354-.935-.489-1.658-.489h-2.478v3.687zm2.642 5.237c.744 0 1.324-.174 1.74-.522s.624-.832.624-1.452c0-.631-.219-1.126-.656-1.485-.438-.37-1.023-.555-1.756-.555h-2.593v4.013h2.642zm5.371-3.279c0-.914.186-1.713.558-2.398.372-.696.881-1.234 1.526-1.615.656-.381 1.384-.571 2.183-.571.788 0 1.472.169 2.052.506s1.012.761 1.297 1.273V12.85h1.51v8.94h-1.51v-1.664c-.295.522-.739.957-1.329 1.305-.58.337-1.258.506-2.035.506-.799 0-1.521-.196-2.166-.587s-1.154-.941-1.526-1.648-.558-1.512-.558-2.415zm7.615.016c0-.674-.137-1.262-.41-1.762s-.646-.881-1.116-1.142a2.94 2.94 0 0 0-1.526-.408c-.558 0-1.067.131-1.526.392s-.826.642-1.1 1.142-.41 1.088-.41 1.762c0 .685.137 1.283.41 1.795a2.96 2.96 0 0 0 1.1 1.158c.46.261.968.392 1.526.392s1.067-.131 1.526-.392c.471-.272.843-.658 1.116-1.158.273-.511.41-1.104.41-1.778zm7.219 4.634c-.689 0-1.308-.114-1.855-.343-.547-.239-.979-.566-1.297-.979-.317-.424-.492-.908-.525-1.452h1.543a1.51 1.51 0 0 0 .624 1.093c.383.283.881.424 1.493.424.569 0 1.018-.125 1.346-.375s.492-.566.492-.946c0-.392-.175-.68-.525-.865-.35-.196-.892-.386-1.625-.571-.668-.174-1.215-.348-1.641-.522a3.11 3.11 0 0 1-1.083-.799c-.296-.359-.443-.827-.443-1.403 0-.457.137-.876.41-1.256s.662-.68 1.165-.897c.503-.228 1.078-.343 1.723-.343.995 0 1.8.25 2.412.751s.941 1.185.985 2.056h-1.493a1.52 1.52 0 0 0-.575-1.126c-.339-.283-.799-.424-1.379-.424-.536 0-.963.114-1.28.343s-.476.527-.476.897c0 .294.093.538.279.734.197.185.438.337.722.457.295.109.7.234 1.214.375.646.174 1.171.348 1.576.522a2.62 2.62 0 0 1 1.034.75c.295.337.448.778.459 1.322 0 .489-.137.93-.41 1.321s-.662.702-1.165.93c-.493.218-1.062.326-1.707.326zm13.597-4.96a8.62 8.62 0 0 1-.049.897h-7.189c.055.881.356 1.572.903 2.072.558.489 1.231.734 2.018.734.646 0 1.182-.147 1.609-.441a2.4 2.4 0 0 0 .919-1.207h1.608a3.88 3.88 0 0 1-1.444 2.105c-.722.533-1.619.799-2.692.799-.853 0-1.619-.19-2.297-.571a4.08 4.08 0 0 1-1.576-1.615c-.383-.707-.574-1.523-.574-2.447s.186-1.735.558-2.431.891-1.229 1.559-1.599c.678-.381 1.455-.571 2.33-.571.854 0 1.609.185 2.265.555a3.78 3.78 0 0 1 1.51 1.534c.361.642.542 1.37.542 2.186zm-1.543-.31c0-.566-.126-1.05-.377-1.452a2.38 2.38 0 0 0-1.034-.93 3.1 3.1 0 0 0-1.428-.326c-.755 0-1.401.239-1.937.718-.525.479-.826 1.142-.903 1.99h5.679z"/></mask><path d="M37.011 16.096c0-1.109.252-2.105.755-2.986a5.47 5.47 0 0 1 2.052-2.088 5.75 5.75 0 0 1 2.905-.75c1.247 0 2.336.299 3.266.897s1.608 1.447 2.035 2.545h-1.789c-.317-.685-.777-1.213-1.379-1.582-.591-.37-1.302-.555-2.134-.555-.799 0-1.516.185-2.15.555s-1.133.897-1.494 1.582c-.361.674-.542 1.468-.542 2.382 0 .903.181 1.697.542 2.382a3.9 3.9 0 0 0 1.494 1.566c.635.37 1.351.555 2.15.555.832 0 1.543-.179 2.134-.538.602-.37 1.061-.897 1.379-1.583h1.789c-.427 1.088-1.105 1.931-2.035 2.529-.93.587-2.019.881-3.266.881-1.061 0-2.03-.245-2.905-.734a5.5 5.5 0 0 1-2.052-2.072c-.503-.881-.755-1.876-.755-2.986zm17.159 5.841a4.67 4.67 0 0 1-2.298-.571 4.16 4.16 0 0 1-1.608-1.615c-.383-.707-.574-1.523-.574-2.447 0-.914.197-1.719.591-2.415a4.1 4.1 0 0 1 1.641-1.615c.689-.381 1.461-.571 2.314-.571s1.625.19 2.314.571a4.02 4.02 0 0 1 1.625 1.599c.405.696.607 1.506.607 2.431s-.208 1.74-.624 2.447c-.405.696-.957 1.234-1.658 1.615s-1.477.571-2.331.571zm0-1.305a3.17 3.17 0 0 0 1.51-.375 2.81 2.81 0 0 0 1.133-1.126c.295-.5.443-1.109.443-1.827s-.142-1.327-.427-1.827-.657-.87-1.116-1.109c-.46-.25-.957-.375-1.494-.375a3.11 3.11 0 0 0-1.51.375c-.449.239-.81.609-1.083 1.109s-.41 1.109-.41 1.827c0 .729.131 1.343.394 1.843.273.5.635.876 1.083 1.126a3.09 3.09 0 0 0 1.477.359zm7.347-9.234c-.285 0-.525-.098-.722-.294s-.296-.435-.296-.718.099-.522.296-.718.438-.294.722-.294a.91.91 0 0 1 .689.294c.197.196.295.435.295.718s-.099.522-.295.718a.91.91 0 0 1-.689.294zm.722 1.452v8.94h-1.494v-8.94h1.494zm6.928-.164c1.094 0 1.981.332 2.659.995.678.652 1.018 1.599 1.018 2.839v5.27h-1.477v-5.058c0-.892-.224-1.572-.673-2.039-.449-.479-1.061-.718-1.838-.718-.788 0-1.417.245-1.888.734-.46.489-.689 1.202-.689 2.137v4.943h-1.494v-8.94h1.494v1.272a2.97 2.97 0 0 1 1.198-1.06c.514-.25 1.078-.375 1.691-.375zm11.845 3.247a2.37 2.37 0 0 1 1.133.506 2.85 2.85 0 0 1 .821 1.011 2.77 2.77 0 0 1 .312 1.289c0 .576-.148 1.098-.443 1.566-.295.457-.728.821-1.297 1.093-.558.261-1.22.392-1.986.392h-4.267V10.419h4.103c.777 0 1.439.131 1.986.392.547.25.957.593 1.231 1.028a2.7 2.7 0 0 1 .41 1.468c0 .674-.186 1.235-.558 1.68-.361.435-.843.75-1.444.946zm-4.234-.604h2.511c.7 0 1.242-.163 1.625-.489s.575-.778.575-1.354-.191-1.028-.575-1.354-.935-.489-1.658-.489h-2.478v3.687zm2.642 5.237c.744 0 1.324-.174 1.74-.522s.624-.832.624-1.452c0-.631-.219-1.126-.656-1.485-.438-.37-1.023-.555-1.756-.555h-2.593v4.013h2.642zm5.371-3.279c0-.914.186-1.713.558-2.398.372-.696.881-1.234 1.526-1.615.656-.381 1.384-.571 2.183-.571.788 0 1.472.169 2.052.506s1.012.761 1.297 1.273V12.85h1.51v8.94h-1.51v-1.664c-.295.522-.739.957-1.329 1.305-.58.337-1.258.506-2.035.506-.799 0-1.521-.196-2.166-.587s-1.154-.941-1.526-1.648-.558-1.512-.558-2.415zm7.615.016c0-.674-.137-1.262-.41-1.762s-.646-.881-1.116-1.142a2.94 2.94 0 0 0-1.526-.408c-.558 0-1.067.131-1.526.392s-.826.642-1.1 1.142-.41 1.088-.41 1.762c0 .685.137 1.283.41 1.795a2.96 2.96 0 0 0 1.1 1.158c.46.261.968.392 1.526.392s1.067-.131 1.526-.392c.471-.272.843-.658 1.116-1.158.273-.511.41-1.104.41-1.778zm7.219 4.634c-.689 0-1.308-.114-1.855-.343-.547-.239-.979-.566-1.297-.979-.317-.424-.492-.908-.525-1.452h1.543a1.51 1.51 0 0 0 .624 1.093c.383.283.881.424 1.493.424.569 0 1.018-.125 1.346-.375s.492-.566.492-.946c0-.392-.175-.68-.525-.865-.35-.196-.892-.386-1.625-.571-.668-.174-1.215-.348-1.641-.522a3.11 3.11 0 0 1-1.083-.799c-.296-.359-.443-.827-.443-1.403 0-.457.137-.876.41-1.256s.662-.68 1.165-.897c.503-.228 1.078-.343 1.723-.343.995 0 1.8.25 2.412.751s.941 1.185.985 2.056h-1.493a1.52 1.52 0 0 0-.575-1.126c-.339-.283-.799-.424-1.379-.424-.536 0-.963.114-1.28.343s-.476.527-.476.897c0 .294.093.538.279.734.197.185.438.337.722.457.295.109.7.234 1.214.375.646.174 1.171.348 1.576.522a2.62 2.62 0 0 1 1.034.75c.295.337.448.778.459 1.322 0 .489-.137.93-.41 1.321s-.662.702-1.165.93c-.493.218-1.062.326-1.707.326zm13.597-4.96a8.62 8.62 0 0 1-.049.897h-7.189c.055.881.356 1.572.903 2.072.558.489 1.231.734 2.018.734.646 0 1.182-.147 1.609-.441a2.4 2.4 0 0 0 .919-1.207h1.608a3.88 3.88 0 0 1-1.444 2.105c-.722.533-1.619.799-2.692.799-.853 0-1.619-.19-2.297-.571a4.08 4.08 0 0 1-1.576-1.615c-.383-.707-.574-1.523-.574-2.447s.186-1.735.558-2.431.891-1.229 1.559-1.599c.678-.381 1.455-.571 2.33-.571.854 0 1.609.185 2.265.555a3.78 3.78 0 0 1 1.51 1.534c.361.642.542 1.37.542 2.186zm-1.543-.31c0-.566-.126-1.05-.377-1.452a2.38 2.38 0 0 0-1.034-.93 3.1 3.1 0 0 0-1.428-.326c-.755 0-1.401.239-1.937.718-.525.479-.826 1.142-.903 1.99h5.679z" fill="#fff"/><path d="M37.011 16.096c0-1.109.252-2.105.755-2.986a5.47 5.47 0 0 1 2.052-2.088 5.75 5.75 0 0 1 2.905-.75c1.247 0 2.336.299 3.266.897s1.608 1.447 2.035 2.545h-1.789c-.317-.685-.777-1.213-1.379-1.582-.591-.37-1.302-.555-2.134-.555-.799 0-1.516.185-2.15.555s-1.133.897-1.494 1.582c-.361.674-.542 1.468-.542 2.382 0 .903.181 1.697.542 2.382a3.9 3.9 0 0 0 1.494 1.566c.635.37 1.351.555 2.15.555.832 0 1.543-.179 2.134-.538.602-.37 1.061-.897 1.379-1.583h1.789c-.427 1.088-1.105 1.931-2.035 2.529-.93.587-2.019.881-3.266.881-1.061 0-2.03-.245-2.905-.734a5.5 5.5 0 0 1-2.052-2.072c-.503-.881-.755-1.876-.755-2.986zm17.159 5.841a4.67 4.67 0 0 1-2.298-.571 4.16 4.16 0 0 1-1.608-1.615c-.383-.707-.574-1.523-.574-2.447 0-.914.197-1.719.591-2.415a4.1 4.1 0 0 1 1.641-1.615c.689-.381 1.461-.571 2.314-.571s1.625.19 2.314.571a4.02 4.02 0 0 1 1.625 1.599c.405.696.607 1.506.607 2.431s-.208 1.74-.624 2.447c-.405.696-.957 1.234-1.658 1.615s-1.477.571-2.331.571zm0-1.305a3.17 3.17 0 0 0 1.51-.375 2.81 2.81 0 0 0 1.133-1.126c.295-.5.443-1.109.443-1.827s-.142-1.327-.427-1.827-.657-.87-1.116-1.109c-.46-.25-.957-.375-1.494-.375a3.11 3.11 0 0 0-1.51.375c-.449.239-.81.609-1.083 1.109s-.41 1.109-.41 1.827c0 .729.131 1.343.394 1.843.273.5.635.876 1.083 1.126a3.09 3.09 0 0 0 1.477.359zm7.347-9.234c-.285 0-.525-.098-.722-.294s-.296-.435-.296-.718.099-.522.296-.718.438-.294.722-.294a.91.91 0 0 1 .689.294c.197.196.295.435.295.718s-.099.522-.295.718a.91.91 0 0 1-.689.294zm.722 1.452v8.94h-1.494v-8.94h1.494zm6.928-.164c1.094 0 1.981.332 2.659.995.678.652 1.018 1.599 1.018 2.839v5.27h-1.477v-5.058c0-.892-.224-1.572-.673-2.039-.449-.479-1.061-.718-1.838-.718-.788 0-1.417.245-1.888.734-.46.489-.689 1.202-.689 2.137v4.943h-1.494v-8.94h1.494v1.272a2.97 2.97 0 0 1 1.198-1.06c.514-.25 1.078-.375 1.691-.375zm11.845 3.247a2.37 2.37 0 0 1 1.133.506 2.85 2.85 0 0 1 .821 1.011 2.77 2.77 0 0 1 .312 1.289c0 .576-.148 1.098-.443 1.566-.295.457-.728.821-1.297 1.093-.558.261-1.22.392-1.986.392h-4.267V10.419h4.103c.777 0 1.439.131 1.986.392.547.25.957.593 1.231 1.028a2.7 2.7 0 0 1 .41 1.468c0 .674-.186 1.235-.558 1.68-.361.435-.843.75-1.444.946zm-4.234-.604h2.511c.7 0 1.242-.163 1.625-.489s.575-.778.575-1.354-.191-1.028-.575-1.354-.935-.489-1.658-.489h-2.478v3.687zm2.642 5.237c.744 0 1.324-.174 1.74-.522s.624-.832.624-1.452c0-.631-.219-1.126-.656-1.485-.438-.37-1.023-.555-1.756-.555h-2.593v4.013h2.642zm5.371-3.279c0-.914.186-1.713.558-2.398.372-.696.881-1.234 1.526-1.615.656-.381 1.384-.571 2.183-.571.788 0 1.472.169 2.052.506s1.012.761 1.297 1.273V12.85h1.51v8.94h-1.51v-1.664c-.295.522-.739.957-1.329 1.305-.58.337-1.258.506-2.035.506-.799 0-1.521-.196-2.166-.587s-1.154-.941-1.526-1.648-.558-1.512-.558-2.415zm7.615.016c0-.674-.137-1.262-.41-1.762s-.646-.881-1.116-1.142a2.94 2.94 0 0 0-1.526-.408c-.558 0-1.067.131-1.526.392s-.826.642-1.1 1.142-.41 1.088-.41 1.762c0 .685.137 1.283.41 1.795a2.96 2.96 0 0 0 1.1 1.158c.46.261.968.392 1.526.392s1.067-.131 1.526-.392c.471-.272.843-.658 1.116-1.158.273-.511.41-1.104.41-1.778zm7.219 4.634c-.689 0-1.308-.114-1.855-.343-.547-.239-.979-.566-1.297-.979-.317-.424-.492-.908-.525-1.452h1.543a1.51 1.51 0 0 0 .624 1.093c.383.283.881.424 1.493.424.569 0 1.018-.125 1.346-.375s.492-.566.492-.946c0-.392-.175-.68-.525-.865-.35-.196-.892-.386-1.625-.571-.668-.174-1.215-.348-1.641-.522a3.11 3.11 0 0 1-1.083-.799c-.296-.359-.443-.827-.443-1.403 0-.457.137-.876.41-1.256s.662-.68 1.165-.897c.503-.228 1.078-.343 1.723-.343.995 0 1.8.25 2.412.751s.941 1.185.985 2.056h-1.493a1.52 1.52 0 0 0-.575-1.126c-.339-.283-.799-.424-1.379-.424-.536 0-.963.114-1.28.343s-.476.527-.476.897c0 .294.093.538.279.734.197.185.438.337.722.457.295.109.7.234 1.214.375.646.174 1.171.348 1.576.522a2.62 2.62 0 0 1 1.034.75c.295.337.448.778.459 1.322 0 .489-.137.93-.41 1.321s-.662.702-1.165.93c-.493.218-1.062.326-1.707.326zm13.597-4.96a8.62 8.62 0 0 1-.049.897h-7.189c.055.881.356 1.572.903 2.072.558.489 1.231.734 2.018.734.646 0 1.182-.147 1.609-.441a2.4 2.4 0 0 0 .919-1.207h1.608a3.88 3.88 0 0 1-1.444 2.105c-.722.533-1.619.799-2.692.799-.853 0-1.619-.19-2.297-.571a4.08 4.08 0 0 1-1.576-1.615c-.383-.707-.574-1.523-.574-2.447s.186-1.735.558-2.431.891-1.229 1.559-1.599c.678-.381 1.455-.571 2.33-.571.854 0 1.609.185 2.265.555a3.78 3.78 0 0 1 1.51 1.534c.361.642.542 1.37.542 2.186zm-1.543-.31c0-.566-.126-1.05-.377-1.452a2.38 2.38 0 0 0-1.034-.93 3.1 3.1 0 0 0-1.428-.326c-.755 0-1.401.239-1.937.718-.525.479-.826 1.142-.903 1.99h5.679z" stroke="#fff" stroke-width=".4" mask="url(#A)"/><g stroke="#fff"><path d="M20.165 23.612h7.328c1.578 0 2.818-1.428 2.818-3.094s-1.24-3.094-2.818-3.094h-1.691C28.057 12.306 26.93 1 16.783 1 10.019 1 6.637 5.165 6.637 13.615H5.51c-2.48 0-4.51 2.261-4.51 4.998s2.029 4.999 4.51 4.999h5.637 9.019z" stroke-width="2" stroke-linejoin="round"/><path d="M16.733 12.157l-1.9.635-.948-2.838 1.871-.625c.389-.13.802-.103 1.165.074h0a1.47 1.47 0 0 1 .758.861c.126.378.096.783-.088 1.143h0a1.53 1.53 0 0 1-.857.75zm-4.14-1.772l.395-.132 2.332 6.979-.395.132a.47.47 0 0 0-.3.594.47.47 0 0 0 .597.295l1.656-.553.128.384a.47.47 0 1 0 .896-.299l-.128-.384.378-.126.128.384a.47.47 0 1 0 .896-.299l-.128-.384c1.388-.482 2.147-1.975 1.685-3.358a2.65 2.65 0 0 0-2.298-1.792c.284-.558.354-1.222.141-1.859-.351-1.05-1.358-1.695-2.422-1.652l-.16-.478h0a.47.47 0 1 0-.896.299l.129.385-.378.126-.129-.385a.47.47 0 1 0-.896.299l.128.385-.499.167h0l-.237.079-.919.307a.47.47 0 0 0-.3.594.47.47 0 0 0 .596.295zm7.142 4.841h0c-.21.413-.57.721-1.016.87l-2.503.836-1.086-3.252 1.871-.625.034-.012.599-.2c.445-.149.919-.118 1.335.085h0c.416.203.724.553.868.986s.109.898-.101 1.311z" fill="#fff" stroke-width=".5"/></g></svg>