<svg xmlns="http://www.w3.org/2000/svg" width="13" height="11" fill="none"  xmlns:v="https://vecta.io/nano"><path opacity=".8" fill-rule="evenodd" d="M12.641.203c-.516.318-1.086.549-1.695.673C10.461.337 9.768 0 9 0 7.528 0 6.334 1.243 6.334 2.777a2.87 2.87 0 0 0 .069.632C4.186 3.293 2.221 2.189.905.507a2.86 2.86 0 0 0-.361 1.398c0 .963.471 1.813 1.187 2.311a2.59 2.59 0 0 1-1.209-.346v.034c0 1.346.919 2.469 2.141 2.723-.224.065-.46.098-.703.098a2.56 2.56 0 0 1-.502-.049c.339 1.103 1.324 1.906 2.491 1.927-.913.745-2.063 1.189-3.312 1.189-.215 0-.428-.013-.636-.038C1.18 10.54 2.583 11 4.089 11c4.906 0 7.588-4.231 7.588-7.901 0-.121-.002-.241-.007-.36A5.52 5.52 0 0 0 13 1.302c-.478.221-.992.37-1.531.437.551-.343.974-.887 1.173-1.536z" fill="#fff"/></svg>