<svg xmlns="http://www.w3.org/2000/svg" xmlns:xlink="http://www.w3.org/1999/xlink" width="17" height="705" fill="none"  xmlns:v="https://vecta.io/nano"><path fill="url(#A)" d="M5.508 0h5.508v705H5.508z"/><path d="M8.262 49.938c4.563 0 8.262-1.973 8.262-4.406s-3.699-4.406-8.262-4.406S0 43.098 0 45.531s3.699 4.406 8.262 4.406z" fill="url(#B)"/><path d="M8.262 160.388c4.563 0 8.262-1.973 8.262-4.407s-3.699-4.406-8.262-4.406S0 153.548 0 155.981s3.699 4.407 8.262 4.407z" fill="url(#C)"/><path d="M8.262 297.862c4.563 0 8.262-1.972 8.262-4.406s-3.699-4.406-8.262-4.406S0 291.023 0 293.456s3.699 4.406 8.262 4.406z" fill="url(#D)"/><path d="M8.262 381.287c4.563 0 8.262-1.972 8.262-4.406s-3.699-4.406-8.262-4.406S0 374.448 0 376.881s3.699 4.406 8.262 4.406z" fill="url(#E)"/><path d="M8.262 487.625c4.563 0 8.262-1.973 8.262-4.406s-3.699-4.407-8.262-4.407S0 480.785 0 483.219s3.699 4.406 8.262 4.406z" fill="url(#F)"/><path d="M8.262 571.05c4.563 0 8.262-1.972 8.262-4.406s-3.699-4.406-8.262-4.406S0 564.211 0 566.644s3.699 4.406 8.262 4.406z" fill="url(#G)"/><defs><linearGradient id="A" x1="8.537" y1="-110.972" x2="297.801" y2="-40.014" xlink:href="#H"><stop stop-color="#fd749b"/><stop offset="1" stop-color="#281ac8"/></linearGradient><linearGradient id="B" x1="9.088" y1="39.738" x2="9.353" y2="55.36" xlink:href="#H"><stop stop-color="#fd749b"/><stop offset="1" stop-color="#281ac8"/></linearGradient><linearGradient id="C" x1="9.088" y1="150.188" x2="9.353" y2="165.81" xlink:href="#H"><stop stop-color="#fd749b"/><stop offset="1" stop-color="#281ac8"/></linearGradient><linearGradient id="D" x1="9.088" y1="287.663" x2="9.353" y2="303.285" xlink:href="#H"><stop stop-color="#fd749b"/><stop offset="1" stop-color="#281ac8"/></linearGradient><linearGradient id="E" x1="9.088" y1="371.088" x2="9.353" y2="386.71" xlink:href="#H"><stop stop-color="#fd749b"/><stop offset="1" stop-color="#281ac8"/></linearGradient><linearGradient id="F" x1="9.088" y1="477.425" x2="9.353" y2="493.048" xlink:href="#H"><stop stop-color="#fd749b"/><stop offset="1" stop-color="#281ac8"/></linearGradient><linearGradient id="G" x1="9.088" y1="560.851" x2="9.353" y2="576.473" xlink:href="#H"><stop stop-color="#fd749b"/><stop offset="1" stop-color="#281ac8"/></linearGradient><linearGradient id="H" gradientUnits="userSpaceOnUse"/></defs></svg>