<svg width="28" height="33" viewBox="0 0 28 33" fill="none" xmlns="http://www.w3.org/2000/svg">
<path d="M17.4714 22.2559H10.8091C5.3344 22.2559 0.873535 26.7167 0.873535 32.1914H27.436C27.407 26.7457 22.9461 22.2559 17.4714 22.2559Z" fill="url(#paint0_linear)"/>
<path d="M15.328 17.7078C15.8494 17.7078 16.3419 17.8816 16.7184 18.2003H19.1227C20.3103 16.9547 21.0345 15.3036 21.0345 13.4497C21.0345 9.62613 17.935 6.55566 14.1404 6.55566C10.3458 6.55566 7.24634 9.62613 7.24634 13.4497C7.24634 16.0278 8.6657 18.2872 10.7803 19.4748C11.012 18.461 11.91 17.7078 12.9528 17.7078H15.328Z" fill="url(#paint1_linear)"/>
<path d="M3.94422 14.0293C4.03112 14.7534 4.37872 15.4197 4.87115 15.9121C5.24772 16.2887 5.74015 16.5783 6.29052 16.7521C6.26155 16.6363 6.26155 16.5204 6.26155 16.4335V10.814C6.26155 10.6981 6.26155 10.5822 6.29052 10.4664C5.74015 10.6112 5.27669 10.9009 4.87115 11.3064C4.84219 11.3354 4.78425 11.3933 4.75529 11.4223V11.1905C4.75529 10.6402 4.81322 10.0898 4.90012 9.5684C4.98702 9.01803 5.13185 8.49663 5.33462 8.0042C5.50842 7.4828 5.74015 6.99036 6.02982 6.5269C6.29052 6.06343 6.60915 5.59996 6.95675 5.19443C6.98572 5.16546 7.01469 5.10753 7.01469 5.07856C7.27539 5.10753 7.53609 5.02063 7.70989 4.84683C9.47685 3.07986 11.7942 2.21086 14.0826 2.21086C16.3709 2.21086 18.7172 3.07986 20.4552 4.84683C20.658 5.0496 20.9187 5.10753 21.1504 5.07856C21.1794 5.10753 21.1794 5.16546 21.2084 5.19443C21.556 5.59996 21.8746 6.06343 22.1353 6.5269C22.396 6.99036 22.6277 7.4828 22.8305 8.0042C23.0043 8.5256 23.1491 9.047 23.265 9.59736C23.3519 10.1188 23.4098 10.6691 23.4098 11.2195V11.4512C23.3809 11.3933 23.3229 11.3643 23.294 11.3354C22.9174 10.9588 22.425 10.6691 21.8746 10.4953C21.9036 10.6112 21.9036 10.7271 21.9036 10.8429V16.4335C21.9036 16.5494 21.9036 16.6652 21.8746 16.7521C22.0194 16.7232 22.1643 16.6652 22.3091 16.6073V18.4322C22.3091 18.635 22.2801 18.8377 22.2512 18.9826C22.2222 19.1274 22.1643 19.2143 22.1063 19.3012C22.0484 19.3591 21.9615 19.4171 21.8746 19.446C21.7587 19.475 21.6429 19.504 21.498 19.504H21.4691H16.1392C15.9654 19.2143 15.6757 19.0115 15.2992 19.0115H12.9239C12.4025 19.0115 11.997 19.446 11.997 19.9385C12.0259 20.4599 12.4315 20.8654 12.9529 20.8654H15.3281C15.6757 20.8654 15.9944 20.6626 16.1682 20.373H21.556H21.7587C21.9615 20.373 22.1353 20.315 22.3091 20.2571C22.5408 20.1702 22.7146 20.0543 22.8884 19.8805C23.0333 19.7067 23.1491 19.504 23.236 19.2433C23.294 19.0115 23.3519 18.7219 23.3519 18.4032V16.0859V15.999C23.3809 15.97 23.4098 15.9411 23.4388 15.9121C23.9312 15.4197 24.2788 14.7534 24.3657 14.0293C24.3947 14.0003 24.4237 14.0003 24.4237 13.9713C24.5106 13.8844 24.5685 13.7396 24.5685 13.6237V11.2195C24.5685 10.6112 24.5106 10.0029 24.4237 9.42356C24.2499 8.81526 24.105 8.23593 23.9023 7.6566C23.6995 7.07726 23.4388 6.5269 23.1202 6.0055C22.8305 5.4841 22.4829 4.99166 22.0774 4.5282C22.0484 4.47026 21.9905 4.4413 21.9325 4.41233C21.9905 4.15163 21.9036 3.833 21.7008 3.63023C19.6152 1.54463 16.8923 0.501831 14.1405 0.501831C11.3887 0.501831 8.66579 1.54463 6.55122 3.63023C6.34845 3.833 6.26155 4.15163 6.31949 4.41233C6.26155 4.4413 6.23259 4.47026 6.17465 4.5282C5.76912 4.99166 5.42152 5.4841 5.13185 6.0055C4.84219 6.5269 4.58149 7.07726 4.34976 7.6566C4.14699 8.23593 3.97319 8.81526 3.88629 9.42356C3.77042 10.0029 3.74146 10.6112 3.74146 11.2195V13.6237C3.74146 13.7686 3.79939 13.8844 3.88629 13.9713C3.91526 14.0003 3.94422 14.0003 3.94422 14.0293Z" fill="url(#paint2_linear)"/>
<defs>
<linearGradient id="paint0_linear" x1="15.4829" y1="20.6919" x2="15.6927" y2="38.3079" gradientUnits="userSpaceOnUse">
<stop stop-color="#FD749B"/>
<stop offset="1" stop-color="#281AC8"/>
</linearGradient>
<linearGradient id="paint1_linear" x1="14.8298" y1="4.5221" x2="15.5128" y2="27.4109" gradientUnits="userSpaceOnUse">
<stop stop-color="#FD749B"/>
<stop offset="1" stop-color="#281AC8"/>
</linearGradient>
<linearGradient id="paint2_linear" x1="15.1963" y1="-2.70354" x2="16.3197" y2="33.3717" gradientUnits="userSpaceOnUse">
<stop stop-color="#FD749B"/>
<stop offset="1" stop-color="#281AC8"/>
</linearGradient>
</defs>
</svg>
